%TF.GenerationSoftware,KiCad,Pcbnew,8.0.0*%
%TF.CreationDate,2024-04-01T11:29:53-03:00*%
%TF.ProjectId,Aula-pcb,41756c61-2d70-4636-922e-6b696361645f,rev?*%
%TF.SameCoordinates,Original*%
%TF.FileFunction,Soldermask,Top*%
%TF.FilePolarity,Negative*%
%FSLAX46Y46*%
G04 Gerber Fmt 4.6, Leading zero omitted, Abs format (unit mm)*
G04 Created by KiCad (PCBNEW 8.0.0) date 2024-04-01 11:29:53*
%MOMM*%
%LPD*%
G01*
G04 APERTURE LIST*
G04 Aperture macros list*
%AMRoundRect*
0 Rectangle with rounded corners*
0 $1 Rounding radius*
0 $2 $3 $4 $5 $6 $7 $8 $9 X,Y pos of 4 corners*
0 Add a 4 corners polygon primitive as box body*
4,1,4,$2,$3,$4,$5,$6,$7,$8,$9,$2,$3,0*
0 Add four circle primitives for the rounded corners*
1,1,$1+$1,$2,$3*
1,1,$1+$1,$4,$5*
1,1,$1+$1,$6,$7*
1,1,$1+$1,$8,$9*
0 Add four rect primitives between the rounded corners*
20,1,$1+$1,$2,$3,$4,$5,0*
20,1,$1+$1,$4,$5,$6,$7,0*
20,1,$1+$1,$6,$7,$8,$9,0*
20,1,$1+$1,$8,$9,$2,$3,0*%
G04 Aperture macros list end*
%ADD10R,2.500000X1.200000*%
%ADD11C,1.600000*%
%ADD12R,1.500000X1.050000*%
%ADD13O,1.500000X1.050000*%
%ADD14RoundRect,0.100000X-0.130000X-0.100000X0.130000X-0.100000X0.130000X0.100000X-0.130000X0.100000X0*%
%ADD15O,1.800000X1.800000*%
%ADD16O,1.500000X1.500000*%
%ADD17O,1.700000X1.700000*%
%ADD18R,3.500000X1.700000*%
%ADD19R,1.700000X1.700000*%
%ADD20R,1.700000X3.500000*%
G04 APERTURE END LIST*
D10*
%TO.C,SW1*%
X219250000Y-76310000D03*
X231750000Y-76310000D03*
X219250000Y-68690000D03*
X231750000Y-68690000D03*
%TD*%
D11*
%TO.C,R2*%
X222045000Y-123000000D03*
X231045000Y-123000000D03*
%TD*%
%TO.C,R1*%
X230955000Y-109000000D03*
X221955000Y-109000000D03*
%TD*%
D12*
%TO.C,Q1*%
X195360000Y-110270000D03*
D13*
X195360000Y-109000000D03*
X195360000Y-107730000D03*
%TD*%
D14*
%TO.C,D1*%
X195525000Y-123000000D03*
X196165000Y-123000000D03*
%TD*%
D15*
%TO.C,U1*%
X171885000Y-73870000D03*
D16*
X172185000Y-76900000D03*
X177035000Y-76900000D03*
D15*
X177335000Y-73870000D03*
D17*
X165720000Y-73740000D03*
D18*
X164820000Y-73740000D03*
D17*
X165720000Y-76280000D03*
D18*
X164820000Y-76280000D03*
D19*
X165720000Y-78820000D03*
D18*
X164820000Y-78820000D03*
D17*
X165720000Y-81360000D03*
D18*
X164820000Y-81360000D03*
D17*
X165720000Y-83900000D03*
D18*
X164820000Y-83900000D03*
D17*
X165720000Y-86440000D03*
D18*
X164820000Y-86440000D03*
D17*
X165720000Y-88980000D03*
D18*
X164820000Y-88980000D03*
D19*
X165720000Y-91520000D03*
D18*
X164820000Y-91520000D03*
D17*
X165720000Y-94060000D03*
D18*
X164820000Y-94060000D03*
D17*
X165720000Y-96600000D03*
D18*
X164820000Y-96600000D03*
D17*
X165720000Y-99140000D03*
D18*
X164820000Y-99140000D03*
D17*
X165720000Y-101680000D03*
D18*
X164820000Y-101680000D03*
D19*
X165720000Y-104220000D03*
D18*
X164820000Y-104220000D03*
D17*
X165720000Y-106760000D03*
D18*
X164820000Y-106760000D03*
D17*
X165720000Y-109300000D03*
D18*
X164820000Y-109300000D03*
D17*
X165720000Y-111840000D03*
D18*
X164820000Y-111840000D03*
D17*
X165720000Y-114380000D03*
D18*
X164820000Y-114380000D03*
D19*
X165720000Y-116920000D03*
D18*
X164820000Y-116920000D03*
D17*
X165720000Y-119460000D03*
D18*
X164820000Y-119460000D03*
D17*
X165720000Y-122000000D03*
D18*
X164820000Y-122000000D03*
D17*
X183500000Y-122000000D03*
D18*
X184400000Y-122000000D03*
D17*
X183500000Y-119460000D03*
D18*
X184400000Y-119460000D03*
D19*
X183500000Y-116920000D03*
D18*
X184400000Y-116920000D03*
D17*
X183500000Y-114380000D03*
D18*
X184400000Y-114380000D03*
D17*
X183500000Y-111840000D03*
D18*
X184400000Y-111840000D03*
D17*
X183500000Y-109300000D03*
D18*
X184400000Y-109300000D03*
D17*
X183500000Y-106760000D03*
D18*
X184400000Y-106760000D03*
D19*
X183500000Y-104220000D03*
D18*
X184400000Y-104220000D03*
D17*
X183500000Y-101680000D03*
D18*
X184400000Y-101680000D03*
D17*
X183500000Y-99140000D03*
D18*
X184400000Y-99140000D03*
D17*
X183500000Y-96600000D03*
D18*
X184400000Y-96600000D03*
D17*
X183500000Y-94060000D03*
D18*
X184400000Y-94060000D03*
D19*
X183500000Y-91520000D03*
D18*
X184400000Y-91520000D03*
D17*
X183500000Y-88980000D03*
D18*
X184400000Y-88980000D03*
D17*
X183500000Y-86440000D03*
D18*
X184400000Y-86440000D03*
D17*
X183500000Y-83900000D03*
D18*
X184400000Y-83900000D03*
D17*
X183500000Y-81360000D03*
D18*
X184400000Y-81360000D03*
D19*
X183500000Y-78820000D03*
D18*
X184400000Y-78820000D03*
D17*
X183500000Y-76280000D03*
D18*
X184400000Y-76280000D03*
D17*
X183500000Y-73740000D03*
D18*
X184400000Y-73740000D03*
D17*
X172070000Y-121770000D03*
D20*
X172070000Y-122670000D03*
D19*
X174610000Y-121770000D03*
D20*
X174610000Y-122670000D03*
D17*
X177150000Y-121770000D03*
D20*
X177150000Y-122670000D03*
%TD*%
M02*
