%TF.GenerationSoftware,KiCad,Pcbnew,8.0.0*%
%TF.CreationDate,2024-04-01T11:29:53-03:00*%
%TF.ProjectId,Aula-pcb,41756c61-2d70-4636-922e-6b696361645f,rev?*%
%TF.SameCoordinates,Original*%
%TF.FileFunction,Soldermask,Bot*%
%TF.FilePolarity,Negative*%
%FSLAX46Y46*%
G04 Gerber Fmt 4.6, Leading zero omitted, Abs format (unit mm)*
G04 Created by KiCad (PCBNEW 8.0.0) date 2024-04-01 11:29:53*
%MOMM*%
%LPD*%
G01*
G04 APERTURE LIST*
%ADD10C,1.600000*%
%ADD11R,1.500000X1.050000*%
%ADD12O,1.500000X1.050000*%
%ADD13O,1.800000X1.800000*%
%ADD14O,1.500000X1.500000*%
%ADD15O,1.700000X1.700000*%
%ADD16R,1.700000X1.700000*%
G04 APERTURE END LIST*
D10*
%TO.C,R2*%
X222045000Y-123000000D03*
X231045000Y-123000000D03*
%TD*%
%TO.C,R1*%
X230955000Y-109000000D03*
X221955000Y-109000000D03*
%TD*%
D11*
%TO.C,Q1*%
X195360000Y-110270000D03*
D12*
X195360000Y-109000000D03*
X195360000Y-107730000D03*
%TD*%
D13*
%TO.C,U1*%
X171885000Y-73870000D03*
D14*
X172185000Y-76900000D03*
X177035000Y-76900000D03*
D13*
X177335000Y-73870000D03*
D15*
X165720000Y-73740000D03*
X165720000Y-76280000D03*
D16*
X165720000Y-78820000D03*
D15*
X165720000Y-81360000D03*
X165720000Y-83900000D03*
X165720000Y-86440000D03*
X165720000Y-88980000D03*
D16*
X165720000Y-91520000D03*
D15*
X165720000Y-94060000D03*
X165720000Y-96600000D03*
X165720000Y-99140000D03*
X165720000Y-101680000D03*
D16*
X165720000Y-104220000D03*
D15*
X165720000Y-106760000D03*
X165720000Y-109300000D03*
X165720000Y-111840000D03*
X165720000Y-114380000D03*
D16*
X165720000Y-116920000D03*
D15*
X165720000Y-119460000D03*
X165720000Y-122000000D03*
X183500000Y-122000000D03*
X183500000Y-119460000D03*
D16*
X183500000Y-116920000D03*
D15*
X183500000Y-114380000D03*
X183500000Y-111840000D03*
X183500000Y-109300000D03*
X183500000Y-106760000D03*
D16*
X183500000Y-104220000D03*
D15*
X183500000Y-101680000D03*
X183500000Y-99140000D03*
X183500000Y-96600000D03*
X183500000Y-94060000D03*
D16*
X183500000Y-91520000D03*
D15*
X183500000Y-88980000D03*
X183500000Y-86440000D03*
X183500000Y-83900000D03*
X183500000Y-81360000D03*
D16*
X183500000Y-78820000D03*
D15*
X183500000Y-76280000D03*
X183500000Y-73740000D03*
X172070000Y-121770000D03*
D16*
X174610000Y-121770000D03*
D15*
X177150000Y-121770000D03*
%TD*%
M02*
