%TF.GenerationSoftware,KiCad,Pcbnew,8.0.0*%
%TF.CreationDate,2024-04-01T11:29:53-03:00*%
%TF.ProjectId,Aula-pcb,41756c61-2d70-4636-922e-6b696361645f,rev?*%
%TF.SameCoordinates,Original*%
%TF.FileFunction,Copper,L1,Top*%
%TF.FilePolarity,Positive*%
%FSLAX46Y46*%
G04 Gerber Fmt 4.6, Leading zero omitted, Abs format (unit mm)*
G04 Created by KiCad (PCBNEW 8.0.0) date 2024-04-01 11:29:53*
%MOMM*%
%LPD*%
G01*
G04 APERTURE LIST*
G04 Aperture macros list*
%AMRoundRect*
0 Rectangle with rounded corners*
0 $1 Rounding radius*
0 $2 $3 $4 $5 $6 $7 $8 $9 X,Y pos of 4 corners*
0 Add a 4 corners polygon primitive as box body*
4,1,4,$2,$3,$4,$5,$6,$7,$8,$9,$2,$3,0*
0 Add four circle primitives for the rounded corners*
1,1,$1+$1,$2,$3*
1,1,$1+$1,$4,$5*
1,1,$1+$1,$6,$7*
1,1,$1+$1,$8,$9*
0 Add four rect primitives between the rounded corners*
20,1,$1+$1,$2,$3,$4,$5,0*
20,1,$1+$1,$4,$5,$6,$7,0*
20,1,$1+$1,$6,$7,$8,$9,0*
20,1,$1+$1,$8,$9,$2,$3,0*%
G04 Aperture macros list end*
%TA.AperFunction,SMDPad,CuDef*%
%ADD10R,2.500000X1.200000*%
%TD*%
%TA.AperFunction,ComponentPad*%
%ADD11C,1.600000*%
%TD*%
%TA.AperFunction,ComponentPad*%
%ADD12R,1.500000X1.050000*%
%TD*%
%TA.AperFunction,ComponentPad*%
%ADD13O,1.500000X1.050000*%
%TD*%
%TA.AperFunction,SMDPad,CuDef*%
%ADD14RoundRect,0.100000X-0.130000X-0.100000X0.130000X-0.100000X0.130000X0.100000X-0.130000X0.100000X0*%
%TD*%
%TA.AperFunction,ComponentPad*%
%ADD15O,1.700000X1.700000*%
%TD*%
%TA.AperFunction,SMDPad,CuDef*%
%ADD16R,3.500000X1.700000*%
%TD*%
%TA.AperFunction,ComponentPad*%
%ADD17R,1.700000X1.700000*%
%TD*%
%TA.AperFunction,SMDPad,CuDef*%
%ADD18R,1.700000X3.500000*%
%TD*%
%TA.AperFunction,Conductor*%
%ADD19C,1.200000*%
%TD*%
%TA.AperFunction,Conductor*%
%ADD20C,0.200000*%
%TD*%
G04 APERTURE END LIST*
D10*
%TO.P,SW1,1,A*%
%TO.N,Net-(R1-Pad1)*%
X219250000Y-76310000D03*
%TO.P,SW1,2,A*%
X231750000Y-76310000D03*
%TO.P,SW1,3,B*%
%TO.N,VCC*%
X219250000Y-68690000D03*
%TO.P,SW1,4,B*%
X231750000Y-68690000D03*
%TD*%
D11*
%TO.P,R2,1*%
%TO.N,Net-(D1-A)*%
X222045000Y-123000000D03*
%TO.P,R2,2*%
%TO.N,VCC*%
X231045000Y-123000000D03*
%TD*%
%TO.P,R1,1*%
%TO.N,Net-(R1-Pad1)*%
X230955000Y-109000000D03*
%TO.P,R1,2*%
%TO.N,Net-(Q1-B)*%
X221955000Y-109000000D03*
%TD*%
D12*
%TO.P,Q1,1,C*%
%TO.N,Net-(D1-K)*%
X195360000Y-110270000D03*
D13*
%TO.P,Q1,2,B*%
%TO.N,Net-(Q1-B)*%
X195360000Y-109000000D03*
%TO.P,Q1,3,E*%
%TO.N,GND*%
X195360000Y-107730000D03*
%TD*%
D14*
%TO.P,D1,1,K*%
%TO.N,Net-(D1-K)*%
X195525000Y-123000000D03*
%TO.P,D1,2,A*%
%TO.N,Net-(D1-A)*%
X196165000Y-123000000D03*
%TD*%
D15*
%TO.P,U1,1,GPIO0*%
%TO.N,unconnected-(U1-GPIO0-Pad1)*%
X165720000Y-73740000D03*
D16*
X164820000Y-73740000D03*
D15*
%TO.P,U1,2,GPIO1*%
%TO.N,unconnected-(U1-GPIO1-Pad2)*%
X165720000Y-76280000D03*
D16*
X164820000Y-76280000D03*
D17*
%TO.P,U1,3,GND*%
%TO.N,unconnected-(U1-GND-Pad3)*%
X165720000Y-78820000D03*
D16*
X164820000Y-78820000D03*
D15*
%TO.P,U1,4,GPIO2*%
%TO.N,unconnected-(U1-GPIO2-Pad4)*%
X165720000Y-81360000D03*
D16*
X164820000Y-81360000D03*
D15*
%TO.P,U1,5,GPIO3*%
%TO.N,unconnected-(U1-GPIO3-Pad5)*%
X165720000Y-83900000D03*
D16*
X164820000Y-83900000D03*
D15*
%TO.P,U1,6,GPIO4*%
%TO.N,unconnected-(U1-GPIO4-Pad6)*%
X165720000Y-86440000D03*
D16*
X164820000Y-86440000D03*
D15*
%TO.P,U1,7,GPIO5*%
%TO.N,unconnected-(U1-GPIO5-Pad7)*%
X165720000Y-88980000D03*
D16*
X164820000Y-88980000D03*
D17*
%TO.P,U1,8,GND*%
%TO.N,unconnected-(U1-GND-Pad8)*%
X165720000Y-91520000D03*
D16*
X164820000Y-91520000D03*
D15*
%TO.P,U1,9,GPIO6*%
%TO.N,unconnected-(U1-GPIO6-Pad9)*%
X165720000Y-94060000D03*
D16*
X164820000Y-94060000D03*
D15*
%TO.P,U1,10,GPIO7*%
%TO.N,unconnected-(U1-GPIO7-Pad10)*%
X165720000Y-96600000D03*
D16*
X164820000Y-96600000D03*
D15*
%TO.P,U1,11,GPIO8*%
%TO.N,unconnected-(U1-GPIO8-Pad11)*%
X165720000Y-99140000D03*
D16*
X164820000Y-99140000D03*
D15*
%TO.P,U1,12,GPIO9*%
%TO.N,unconnected-(U1-GPIO9-Pad12)*%
X165720000Y-101680000D03*
D16*
X164820000Y-101680000D03*
D17*
%TO.P,U1,13,GND*%
%TO.N,unconnected-(U1-GND-Pad13)*%
X165720000Y-104220000D03*
D16*
X164820000Y-104220000D03*
D15*
%TO.P,U1,14,GPIO10*%
%TO.N,unconnected-(U1-GPIO10-Pad14)*%
X165720000Y-106760000D03*
D16*
X164820000Y-106760000D03*
D15*
%TO.P,U1,15,GPIO11*%
%TO.N,unconnected-(U1-GPIO11-Pad15)*%
X165720000Y-109300000D03*
D16*
X164820000Y-109300000D03*
D15*
%TO.P,U1,16,GPIO12*%
%TO.N,unconnected-(U1-GPIO12-Pad16)*%
X165720000Y-111840000D03*
D16*
X164820000Y-111840000D03*
D15*
%TO.P,U1,17,GPIO13*%
%TO.N,unconnected-(U1-GPIO13-Pad17)*%
X165720000Y-114380000D03*
D16*
X164820000Y-114380000D03*
D17*
%TO.P,U1,18,GND*%
%TO.N,unconnected-(U1-GND-Pad18)*%
X165720000Y-116920000D03*
D16*
X164820000Y-116920000D03*
D15*
%TO.P,U1,19,GPIO14*%
%TO.N,unconnected-(U1-GPIO14-Pad19)*%
X165720000Y-119460000D03*
D16*
X164820000Y-119460000D03*
D15*
%TO.P,U1,20,GPIO15*%
%TO.N,unconnected-(U1-GPIO15-Pad20)*%
X165720000Y-122000000D03*
D16*
X164820000Y-122000000D03*
D15*
%TO.P,U1,21,GPIO16*%
%TO.N,unconnected-(U1-GPIO16-Pad21)*%
X183500000Y-122000000D03*
D16*
X184400000Y-122000000D03*
D15*
%TO.P,U1,22,GPIO17*%
%TO.N,unconnected-(U1-GPIO17-Pad22)*%
X183500000Y-119460000D03*
D16*
X184400000Y-119460000D03*
D17*
%TO.P,U1,23,GND*%
%TO.N,unconnected-(U1-GND-Pad23)*%
X183500000Y-116920000D03*
D16*
X184400000Y-116920000D03*
D15*
%TO.P,U1,24,GPIO18*%
%TO.N,unconnected-(U1-GPIO18-Pad24)*%
X183500000Y-114380000D03*
D16*
X184400000Y-114380000D03*
D15*
%TO.P,U1,25,GPIO19*%
%TO.N,unconnected-(U1-GPIO19-Pad25)*%
X183500000Y-111840000D03*
D16*
X184400000Y-111840000D03*
D15*
%TO.P,U1,26,GPIO20*%
%TO.N,unconnected-(U1-GPIO20-Pad26)*%
X183500000Y-109300000D03*
D16*
X184400000Y-109300000D03*
D15*
%TO.P,U1,27,GPIO21*%
%TO.N,unconnected-(U1-GPIO21-Pad27)*%
X183500000Y-106760000D03*
D16*
X184400000Y-106760000D03*
D17*
%TO.P,U1,28,GND*%
%TO.N,unconnected-(U1-GND-Pad28)*%
X183500000Y-104220000D03*
D16*
X184400000Y-104220000D03*
D15*
%TO.P,U1,29,GPIO22*%
%TO.N,unconnected-(U1-GPIO22-Pad29)*%
X183500000Y-101680000D03*
D16*
X184400000Y-101680000D03*
D15*
%TO.P,U1,30,RUN*%
%TO.N,unconnected-(U1-RUN-Pad30)*%
X183500000Y-99140000D03*
D16*
X184400000Y-99140000D03*
D15*
%TO.P,U1,31,GPIO26_ADC0*%
%TO.N,unconnected-(U1-GPIO26_ADC0-Pad31)*%
X183500000Y-96600000D03*
D16*
X184400000Y-96600000D03*
D15*
%TO.P,U1,32,GPIO27_ADC1*%
%TO.N,unconnected-(U1-GPIO27_ADC1-Pad32)*%
X183500000Y-94060000D03*
D16*
X184400000Y-94060000D03*
D17*
%TO.P,U1,33,AGND*%
%TO.N,unconnected-(U1-AGND-Pad33)*%
X183500000Y-91520000D03*
D16*
X184400000Y-91520000D03*
D15*
%TO.P,U1,34,GPIO28_ADC2*%
%TO.N,unconnected-(U1-GPIO28_ADC2-Pad34)*%
X183500000Y-88980000D03*
D16*
X184400000Y-88980000D03*
D15*
%TO.P,U1,35,ADC_VREF*%
%TO.N,unconnected-(U1-ADC_VREF-Pad35)*%
X183500000Y-86440000D03*
D16*
X184400000Y-86440000D03*
D15*
%TO.P,U1,36,3V3*%
%TO.N,unconnected-(U1-3V3-Pad36)*%
X183500000Y-83900000D03*
D16*
X184400000Y-83900000D03*
D15*
%TO.P,U1,37,3V3_EN*%
%TO.N,unconnected-(U1-3V3_EN-Pad37)*%
X183500000Y-81360000D03*
D16*
X184400000Y-81360000D03*
D17*
%TO.P,U1,38,GND*%
%TO.N,GND*%
X183500000Y-78820000D03*
D16*
X184400000Y-78820000D03*
D15*
%TO.P,U1,39,VSYS*%
%TO.N,VCC*%
X183500000Y-76280000D03*
D16*
X184400000Y-76280000D03*
D15*
%TO.P,U1,40,VBUS*%
%TO.N,unconnected-(U1-VBUS-Pad40)*%
X183500000Y-73740000D03*
D16*
X184400000Y-73740000D03*
D15*
%TO.P,U1,41,SWCLK*%
%TO.N,unconnected-(U1-SWCLK-Pad41)*%
X172070000Y-121770000D03*
D18*
X172070000Y-122670000D03*
D17*
%TO.P,U1,42,GND*%
%TO.N,unconnected-(U1-GND-Pad42)*%
X174610000Y-121770000D03*
D18*
X174610000Y-122670000D03*
D15*
%TO.P,U1,43,SWDIO*%
%TO.N,unconnected-(U1-SWDIO-Pad43)*%
X177150000Y-121770000D03*
D18*
X177150000Y-122670000D03*
%TD*%
D19*
%TO.N,VCC*%
X186220000Y-76280000D02*
X193810000Y-68690000D01*
D20*
X183500000Y-76280000D02*
X186220000Y-76280000D01*
D19*
X193810000Y-68690000D02*
X219250000Y-68690000D01*
X231750000Y-68690000D02*
X219250000Y-68690000D01*
X246810000Y-76500000D02*
X239000000Y-68690000D01*
D20*
X246810000Y-76500000D02*
X246810000Y-76250000D01*
D19*
X239000000Y-68690000D02*
X231750000Y-68690000D01*
X246810000Y-88750000D02*
X246810000Y-76500000D01*
%TO.N,Net-(R1-Pad1)*%
X231750000Y-76310000D02*
X219250000Y-76310000D01*
X239130000Y-76310000D02*
X231750000Y-76310000D01*
D20*
X239190000Y-76250000D02*
X239130000Y-76310000D01*
D19*
X239190000Y-88750000D02*
X239190000Y-76250000D01*
X230955000Y-96985000D02*
X239190000Y-88750000D01*
X230955000Y-109000000D02*
X230955000Y-96985000D01*
%TO.N,Net-(Q1-B)*%
X195360000Y-109000000D02*
X221955000Y-109000000D01*
%TO.N,VCC*%
X246810000Y-107235000D02*
X246810000Y-88750000D01*
X231045000Y-123000000D02*
X246810000Y-107235000D01*
%TO.N,Net-(D1-A)*%
X196165000Y-123000000D02*
X222045000Y-123000000D01*
D20*
%TO.N,Net-(D1-K)*%
X195360000Y-122835000D02*
X195525000Y-123000000D01*
D19*
X195360000Y-110270000D02*
X195360000Y-122835000D01*
%TD*%
%TA.AperFunction,Conductor*%
%TO.N,GND*%
G36*
X264442539Y-44020185D02*
G01*
X264488294Y-44072989D01*
X264499500Y-44124500D01*
X264499500Y-149375500D01*
X264479815Y-149442539D01*
X264427011Y-149488294D01*
X264375500Y-149499500D01*
X126124500Y-149499500D01*
X126057461Y-149479815D01*
X126011706Y-149427011D01*
X126000500Y-149375500D01*
X126000500Y-122897870D01*
X162569500Y-122897870D01*
X162569501Y-122897876D01*
X162575908Y-122957483D01*
X162626202Y-123092328D01*
X162626206Y-123092335D01*
X162712452Y-123207544D01*
X162712455Y-123207547D01*
X162827664Y-123293793D01*
X162827671Y-123293797D01*
X162962517Y-123344091D01*
X162962516Y-123344091D01*
X162969444Y-123344835D01*
X163022127Y-123350500D01*
X165655611Y-123350499D01*
X165666419Y-123350971D01*
X165719999Y-123355659D01*
X165720000Y-123355659D01*
X165720001Y-123355659D01*
X165773580Y-123350971D01*
X165784388Y-123350499D01*
X166617871Y-123350499D01*
X166617872Y-123350499D01*
X166677483Y-123344091D01*
X166812331Y-123293796D01*
X166927546Y-123207546D01*
X167013796Y-123092331D01*
X167064091Y-122957483D01*
X167070500Y-122897873D01*
X167070499Y-122064383D01*
X167070971Y-122053576D01*
X167075659Y-122000000D01*
X167075659Y-121999999D01*
X167070971Y-121946421D01*
X167070499Y-121935613D01*
X167070499Y-121770001D01*
X170714341Y-121770001D01*
X170719028Y-121823574D01*
X170719500Y-121834381D01*
X170719500Y-124467870D01*
X170719501Y-124467876D01*
X170725908Y-124527483D01*
X170776202Y-124662328D01*
X170776206Y-124662335D01*
X170862452Y-124777544D01*
X170862455Y-124777547D01*
X170977664Y-124863793D01*
X170977671Y-124863797D01*
X171112517Y-124914091D01*
X171112516Y-124914091D01*
X171119444Y-124914835D01*
X171172127Y-124920500D01*
X172967872Y-124920499D01*
X173027483Y-124914091D01*
X173162331Y-124863796D01*
X173265690Y-124786421D01*
X173331152Y-124762004D01*
X173399425Y-124776855D01*
X173414303Y-124786416D01*
X173517665Y-124863793D01*
X173517668Y-124863795D01*
X173517671Y-124863797D01*
X173652517Y-124914091D01*
X173652516Y-124914091D01*
X173659444Y-124914835D01*
X173712127Y-124920500D01*
X175507872Y-124920499D01*
X175567483Y-124914091D01*
X175702331Y-124863796D01*
X175805690Y-124786421D01*
X175871152Y-124762004D01*
X175939425Y-124776855D01*
X175954303Y-124786416D01*
X176057665Y-124863793D01*
X176057668Y-124863795D01*
X176057671Y-124863797D01*
X176192517Y-124914091D01*
X176192516Y-124914091D01*
X176199444Y-124914835D01*
X176252127Y-124920500D01*
X178047872Y-124920499D01*
X178107483Y-124914091D01*
X178242331Y-124863796D01*
X178357546Y-124777546D01*
X178443796Y-124662331D01*
X178494091Y-124527483D01*
X178500500Y-124467873D01*
X178500499Y-122000002D01*
X182144341Y-122000002D01*
X182149028Y-122053576D01*
X182149500Y-122064383D01*
X182149500Y-122897870D01*
X182149501Y-122897876D01*
X182155908Y-122957483D01*
X182206202Y-123092328D01*
X182206206Y-123092335D01*
X182292452Y-123207544D01*
X182292455Y-123207547D01*
X182407664Y-123293793D01*
X182407671Y-123293797D01*
X182542517Y-123344091D01*
X182542516Y-123344091D01*
X182549444Y-123344835D01*
X182602127Y-123350500D01*
X183435616Y-123350499D01*
X183446425Y-123350971D01*
X183500000Y-123355659D01*
X183553575Y-123350971D01*
X183564384Y-123350499D01*
X186197871Y-123350499D01*
X186197872Y-123350499D01*
X186257483Y-123344091D01*
X186392331Y-123293796D01*
X186507546Y-123207546D01*
X186593796Y-123092331D01*
X186644091Y-122957483D01*
X186650500Y-122897873D01*
X186650499Y-121102128D01*
X186644091Y-121042517D01*
X186593796Y-120907669D01*
X186516421Y-120804309D01*
X186492004Y-120738848D01*
X186506855Y-120670575D01*
X186516416Y-120655696D01*
X186593796Y-120552331D01*
X186644091Y-120417483D01*
X186650500Y-120357873D01*
X186650499Y-118562128D01*
X186644091Y-118502517D01*
X186593796Y-118367669D01*
X186516421Y-118264309D01*
X186492004Y-118198848D01*
X186506855Y-118130575D01*
X186516416Y-118115696D01*
X186593796Y-118012331D01*
X186644091Y-117877483D01*
X186650500Y-117817873D01*
X186650499Y-116022128D01*
X186644091Y-115962517D01*
X186593796Y-115827669D01*
X186516421Y-115724309D01*
X186492004Y-115658848D01*
X186506855Y-115590575D01*
X186516416Y-115575696D01*
X186593796Y-115472331D01*
X186644091Y-115337483D01*
X186650500Y-115277873D01*
X186650499Y-113482128D01*
X186644091Y-113422517D01*
X186593796Y-113287669D01*
X186516421Y-113184309D01*
X186492004Y-113118848D01*
X186506855Y-113050575D01*
X186516416Y-113035696D01*
X186593796Y-112932331D01*
X186644091Y-112797483D01*
X186650500Y-112737873D01*
X186650499Y-110942128D01*
X186644091Y-110882517D01*
X186629304Y-110842872D01*
X186629303Y-110842870D01*
X194109500Y-110842870D01*
X194109501Y-110842876D01*
X194115908Y-110902483D01*
X194166202Y-111037328D01*
X194166203Y-111037330D01*
X194234767Y-111128919D01*
X194259184Y-111194383D01*
X194259500Y-111203230D01*
X194259500Y-122921611D01*
X194286598Y-123092701D01*
X194340127Y-123257445D01*
X194418768Y-123411788D01*
X194520586Y-123551928D01*
X194643072Y-123674414D01*
X194783212Y-123776232D01*
X194937555Y-123854873D01*
X195102299Y-123908402D01*
X195273389Y-123935500D01*
X195273390Y-123935500D01*
X195446608Y-123935500D01*
X195446611Y-123935500D01*
X195506516Y-123926011D01*
X195575806Y-123934965D01*
X195583805Y-123939150D01*
X195583872Y-123939020D01*
X195588208Y-123941229D01*
X195588212Y-123941232D01*
X195742555Y-124019873D01*
X195907299Y-124073402D01*
X196078389Y-124100500D01*
X221310228Y-124100500D01*
X221377267Y-124120185D01*
X221381340Y-124122917D01*
X221392266Y-124130568D01*
X221598504Y-124226739D01*
X221818308Y-124285635D01*
X221980230Y-124299801D01*
X222044998Y-124305468D01*
X222045000Y-124305468D01*
X222045002Y-124305468D01*
X222101673Y-124300509D01*
X222271692Y-124285635D01*
X222491496Y-124226739D01*
X222697734Y-124130568D01*
X222884139Y-124000047D01*
X223045047Y-123839139D01*
X223175568Y-123652734D01*
X223271739Y-123446496D01*
X223330635Y-123226692D01*
X223350468Y-123000000D01*
X223330635Y-122773308D01*
X223271739Y-122553504D01*
X223175568Y-122347266D01*
X223045047Y-122160861D01*
X223045045Y-122160858D01*
X222884141Y-121999954D01*
X222697734Y-121869432D01*
X222697732Y-121869431D01*
X222491497Y-121773261D01*
X222491488Y-121773258D01*
X222271697Y-121714366D01*
X222271693Y-121714365D01*
X222271692Y-121714365D01*
X222271691Y-121714364D01*
X222271686Y-121714364D01*
X222045002Y-121694532D01*
X222044998Y-121694532D01*
X221818313Y-121714364D01*
X221818302Y-121714366D01*
X221598511Y-121773258D01*
X221598502Y-121773261D01*
X221392267Y-121869431D01*
X221392265Y-121869432D01*
X221381351Y-121877075D01*
X221315144Y-121899402D01*
X221310228Y-121899500D01*
X196584500Y-121899500D01*
X196517461Y-121879815D01*
X196471706Y-121827011D01*
X196460500Y-121775500D01*
X196460500Y-111203230D01*
X196480185Y-111136191D01*
X196485233Y-111128919D01*
X196553796Y-111037331D01*
X196604091Y-110902483D01*
X196610500Y-110842873D01*
X196610499Y-110224499D01*
X196630183Y-110157461D01*
X196682987Y-110111706D01*
X196734499Y-110100500D01*
X221220228Y-110100500D01*
X221287267Y-110120185D01*
X221291340Y-110122917D01*
X221302266Y-110130568D01*
X221508504Y-110226739D01*
X221728308Y-110285635D01*
X221890230Y-110299801D01*
X221954998Y-110305468D01*
X221955000Y-110305468D01*
X221955002Y-110305468D01*
X222011673Y-110300509D01*
X222181692Y-110285635D01*
X222401496Y-110226739D01*
X222607734Y-110130568D01*
X222794139Y-110000047D01*
X222955047Y-109839139D01*
X223085568Y-109652734D01*
X223181739Y-109446496D01*
X223240635Y-109226692D01*
X223260468Y-109000000D01*
X223240635Y-108773308D01*
X223181739Y-108553504D01*
X223085568Y-108347266D01*
X222955047Y-108160861D01*
X222955045Y-108160858D01*
X222794141Y-107999954D01*
X222607734Y-107869432D01*
X222607732Y-107869431D01*
X222401497Y-107773261D01*
X222401488Y-107773258D01*
X222181697Y-107714366D01*
X222181693Y-107714365D01*
X222181692Y-107714365D01*
X222181691Y-107714364D01*
X222181686Y-107714364D01*
X221955002Y-107694532D01*
X221954998Y-107694532D01*
X221728313Y-107714364D01*
X221728302Y-107714366D01*
X221508511Y-107773258D01*
X221508502Y-107773261D01*
X221302267Y-107869431D01*
X221302265Y-107869432D01*
X221291351Y-107877075D01*
X221225144Y-107899402D01*
X221220228Y-107899500D01*
X195695152Y-107899500D01*
X195709444Y-107874745D01*
X195735000Y-107779370D01*
X195735000Y-107680630D01*
X195709444Y-107585255D01*
X195660075Y-107499745D01*
X195640330Y-107480000D01*
X196580353Y-107480000D01*
X196570612Y-107431025D01*
X196570609Y-107431016D01*
X196493347Y-107244486D01*
X196493340Y-107244473D01*
X196381170Y-107076600D01*
X196381167Y-107076596D01*
X196238403Y-106933832D01*
X196238399Y-106933829D01*
X196070526Y-106821659D01*
X196070513Y-106821652D01*
X195883983Y-106744390D01*
X195883974Y-106744387D01*
X195685958Y-106705000D01*
X195610000Y-106705000D01*
X195610000Y-107449670D01*
X195590255Y-107429925D01*
X195504745Y-107380556D01*
X195409370Y-107355000D01*
X195310630Y-107355000D01*
X195215255Y-107380556D01*
X195129745Y-107429925D01*
X195110000Y-107449670D01*
X195110000Y-106705000D01*
X195034041Y-106705000D01*
X194836025Y-106744387D01*
X194836016Y-106744390D01*
X194649486Y-106821652D01*
X194649473Y-106821659D01*
X194481600Y-106933829D01*
X194481596Y-106933832D01*
X194338832Y-107076596D01*
X194338829Y-107076600D01*
X194226659Y-107244473D01*
X194226652Y-107244486D01*
X194149390Y-107431016D01*
X194149387Y-107431025D01*
X194139647Y-107480000D01*
X195079670Y-107480000D01*
X195059925Y-107499745D01*
X195010556Y-107585255D01*
X194985000Y-107680630D01*
X194985000Y-107779370D01*
X195010556Y-107874745D01*
X195050255Y-107943507D01*
X194956624Y-107973931D01*
X194918306Y-107980000D01*
X194139647Y-107980000D01*
X194149387Y-108028974D01*
X194149390Y-108028983D01*
X194226652Y-108215513D01*
X194226659Y-108215526D01*
X194280203Y-108295659D01*
X194301081Y-108362336D01*
X194282597Y-108429716D01*
X194280204Y-108433439D01*
X194226214Y-108514243D01*
X194148909Y-108700872D01*
X194148907Y-108700880D01*
X194109500Y-108898992D01*
X194109500Y-109101007D01*
X194148907Y-109299119D01*
X194148909Y-109299127D01*
X194182325Y-109379800D01*
X194189794Y-109449270D01*
X194170038Y-109494660D01*
X194170454Y-109494887D01*
X194167919Y-109499528D01*
X194167037Y-109501556D01*
X194166206Y-109502665D01*
X194166202Y-109502672D01*
X194115908Y-109637517D01*
X194109501Y-109697116D01*
X194109500Y-109697135D01*
X194109500Y-110842870D01*
X186629303Y-110842870D01*
X186593797Y-110747671D01*
X186593795Y-110747668D01*
X186516421Y-110644309D01*
X186492004Y-110578848D01*
X186506855Y-110510575D01*
X186516416Y-110495696D01*
X186593796Y-110392331D01*
X186644091Y-110257483D01*
X186650500Y-110197873D01*
X186650499Y-108402128D01*
X186644091Y-108342517D01*
X186596726Y-108215526D01*
X186593797Y-108207671D01*
X186593795Y-108207668D01*
X186516421Y-108104309D01*
X186492004Y-108038848D01*
X186506855Y-107970575D01*
X186516416Y-107955696D01*
X186593796Y-107852331D01*
X186644091Y-107717483D01*
X186650500Y-107657873D01*
X186650499Y-105862128D01*
X186644091Y-105802517D01*
X186593796Y-105667669D01*
X186516421Y-105564309D01*
X186492004Y-105498848D01*
X186506855Y-105430575D01*
X186516416Y-105415696D01*
X186593796Y-105312331D01*
X186644091Y-105177483D01*
X186650500Y-105117873D01*
X186650499Y-103322128D01*
X186644091Y-103262517D01*
X186593796Y-103127669D01*
X186516421Y-103024309D01*
X186492004Y-102958848D01*
X186506855Y-102890575D01*
X186516416Y-102875696D01*
X186593796Y-102772331D01*
X186644091Y-102637483D01*
X186650500Y-102577873D01*
X186650499Y-100782128D01*
X186644091Y-100722517D01*
X186593796Y-100587669D01*
X186516421Y-100484309D01*
X186492004Y-100418848D01*
X186506855Y-100350575D01*
X186516416Y-100335696D01*
X186593796Y-100232331D01*
X186644091Y-100097483D01*
X186650500Y-100037873D01*
X186650499Y-98242128D01*
X186644091Y-98182517D01*
X186593796Y-98047669D01*
X186516421Y-97944309D01*
X186492004Y-97878848D01*
X186506855Y-97810575D01*
X186516416Y-97795696D01*
X186593796Y-97692331D01*
X186644091Y-97557483D01*
X186650500Y-97497873D01*
X186650499Y-95702128D01*
X186644091Y-95642517D01*
X186593796Y-95507669D01*
X186516421Y-95404309D01*
X186492004Y-95338848D01*
X186506855Y-95270575D01*
X186516416Y-95255696D01*
X186593796Y-95152331D01*
X186644091Y-95017483D01*
X186650500Y-94957873D01*
X186650499Y-93162128D01*
X186644091Y-93102517D01*
X186593796Y-92967669D01*
X186516421Y-92864309D01*
X186492004Y-92798848D01*
X186506855Y-92730575D01*
X186516416Y-92715696D01*
X186593796Y-92612331D01*
X186644091Y-92477483D01*
X186650500Y-92417873D01*
X186650499Y-90622128D01*
X186644091Y-90562517D01*
X186593796Y-90427669D01*
X186516421Y-90324309D01*
X186492004Y-90258848D01*
X186506855Y-90190575D01*
X186516416Y-90175696D01*
X186593796Y-90072331D01*
X186644091Y-89937483D01*
X186650500Y-89877873D01*
X186650499Y-88082128D01*
X186644091Y-88022517D01*
X186593796Y-87887669D01*
X186516421Y-87784309D01*
X186492004Y-87718848D01*
X186506855Y-87650575D01*
X186516416Y-87635696D01*
X186593796Y-87532331D01*
X186644091Y-87397483D01*
X186650500Y-87337873D01*
X186650499Y-85542128D01*
X186644091Y-85482517D01*
X186593796Y-85347669D01*
X186516421Y-85244309D01*
X186492004Y-85178848D01*
X186506855Y-85110575D01*
X186516416Y-85095696D01*
X186593796Y-84992331D01*
X186644091Y-84857483D01*
X186650500Y-84797873D01*
X186650499Y-83002128D01*
X186644091Y-82942517D01*
X186593796Y-82807669D01*
X186516421Y-82704309D01*
X186492004Y-82638848D01*
X186506855Y-82570575D01*
X186516416Y-82555696D01*
X186593796Y-82452331D01*
X186644091Y-82317483D01*
X186650500Y-82257873D01*
X186650499Y-80462128D01*
X186644091Y-80402517D01*
X186593796Y-80267669D01*
X186516109Y-80163893D01*
X186491692Y-80098430D01*
X186506543Y-80030157D01*
X186516110Y-80015271D01*
X186593352Y-79912089D01*
X186593354Y-79912086D01*
X186643596Y-79777379D01*
X186643598Y-79777372D01*
X186649999Y-79717844D01*
X186650000Y-79717827D01*
X186650000Y-79070000D01*
X183944560Y-79070000D01*
X183975245Y-79016853D01*
X184010000Y-78887143D01*
X184010000Y-78752857D01*
X183975245Y-78623147D01*
X183944560Y-78570000D01*
X186650000Y-78570000D01*
X186650000Y-77922172D01*
X186649999Y-77922155D01*
X186643598Y-77862627D01*
X186643596Y-77862620D01*
X186593354Y-77727913D01*
X186593352Y-77727910D01*
X186516110Y-77624729D01*
X186491692Y-77559265D01*
X186506543Y-77490992D01*
X186516105Y-77476111D01*
X186593796Y-77372331D01*
X186598874Y-77358713D01*
X186640741Y-77302780D01*
X186658757Y-77291561D01*
X186796788Y-77221232D01*
X186936928Y-77119414D01*
X187098472Y-76957870D01*
X217499500Y-76957870D01*
X217499501Y-76957876D01*
X217505908Y-77017483D01*
X217556202Y-77152328D01*
X217556206Y-77152335D01*
X217642452Y-77267544D01*
X217642455Y-77267547D01*
X217757664Y-77353793D01*
X217757671Y-77353797D01*
X217892517Y-77404091D01*
X217892516Y-77404091D01*
X217899444Y-77404835D01*
X217952127Y-77410500D01*
X219153386Y-77410499D01*
X219153400Y-77410500D01*
X219163389Y-77410500D01*
X230452127Y-77410500D01*
X231663389Y-77410500D01*
X237965500Y-77410500D01*
X238032539Y-77430185D01*
X238078294Y-77482989D01*
X238089500Y-77534500D01*
X238089500Y-88242796D01*
X238069815Y-88309835D01*
X238053181Y-88330477D01*
X230115588Y-96268069D01*
X230115588Y-96268070D01*
X230115586Y-96268072D01*
X230071859Y-96328256D01*
X230013768Y-96408211D01*
X229935128Y-96562552D01*
X229881597Y-96727302D01*
X229854500Y-96898389D01*
X229854500Y-108265227D01*
X229834815Y-108332266D01*
X229832089Y-108336329D01*
X229825121Y-108346282D01*
X229824430Y-108347269D01*
X229728261Y-108553502D01*
X229728258Y-108553511D01*
X229669366Y-108773302D01*
X229669364Y-108773313D01*
X229649532Y-108999998D01*
X229649532Y-109000001D01*
X229669364Y-109226686D01*
X229669366Y-109226697D01*
X229728258Y-109446488D01*
X229728261Y-109446497D01*
X229824431Y-109652732D01*
X229824432Y-109652734D01*
X229954954Y-109839141D01*
X230115858Y-110000045D01*
X230115861Y-110000047D01*
X230302266Y-110130568D01*
X230508504Y-110226739D01*
X230728308Y-110285635D01*
X230890230Y-110299801D01*
X230954998Y-110305468D01*
X230955000Y-110305468D01*
X230955002Y-110305468D01*
X231011673Y-110300509D01*
X231181692Y-110285635D01*
X231401496Y-110226739D01*
X231607734Y-110130568D01*
X231794139Y-110000047D01*
X231955047Y-109839139D01*
X232085568Y-109652734D01*
X232181739Y-109446496D01*
X232240635Y-109226692D01*
X232260468Y-109000000D01*
X232240635Y-108773308D01*
X232181739Y-108553504D01*
X232085568Y-108347266D01*
X232077921Y-108336345D01*
X232055597Y-108270140D01*
X232055500Y-108265227D01*
X232055500Y-97492204D01*
X232075185Y-97425165D01*
X232091819Y-97404523D01*
X235500729Y-93995613D01*
X240029414Y-89466928D01*
X240046317Y-89443663D01*
X240131232Y-89326788D01*
X240209873Y-89172445D01*
X240263402Y-89007701D01*
X240290500Y-88836611D01*
X240290500Y-76163389D01*
X240263402Y-75992299D01*
X240209873Y-75827555D01*
X240131232Y-75673212D01*
X240029414Y-75533072D01*
X239906928Y-75410586D01*
X239766788Y-75308768D01*
X239612445Y-75230127D01*
X239447701Y-75176598D01*
X239447699Y-75176597D01*
X239447698Y-75176597D01*
X239316271Y-75155781D01*
X239276611Y-75149500D01*
X239103389Y-75149500D01*
X239071192Y-75154599D01*
X238932301Y-75176597D01*
X238849716Y-75203431D01*
X238811398Y-75209500D01*
X217952129Y-75209500D01*
X217952123Y-75209501D01*
X217892516Y-75215908D01*
X217757671Y-75266202D01*
X217757664Y-75266206D01*
X217642455Y-75352452D01*
X217642452Y-75352455D01*
X217556206Y-75467664D01*
X217556202Y-75467671D01*
X217505908Y-75602517D01*
X217499501Y-75662116D01*
X217499500Y-75662135D01*
X217499500Y-76957870D01*
X187098472Y-76957870D01*
X194229523Y-69826819D01*
X194290846Y-69793334D01*
X194317204Y-69790500D01*
X217952127Y-69790500D01*
X219163389Y-69790500D01*
X230452127Y-69790500D01*
X231663389Y-69790500D01*
X238492796Y-69790500D01*
X238559835Y-69810185D01*
X238580477Y-69826819D01*
X245673181Y-76919523D01*
X245706666Y-76980846D01*
X245709500Y-77007204D01*
X245709500Y-106727795D01*
X245689815Y-106794834D01*
X245673181Y-106815476D01*
X230781676Y-121706980D01*
X230726090Y-121739073D01*
X230598504Y-121773260D01*
X230392267Y-121869431D01*
X230392265Y-121869432D01*
X230205858Y-121999954D01*
X230044954Y-122160858D01*
X229914432Y-122347265D01*
X229914431Y-122347267D01*
X229818261Y-122553502D01*
X229818258Y-122553511D01*
X229759366Y-122773302D01*
X229759364Y-122773313D01*
X229739532Y-122999998D01*
X229739532Y-123000001D01*
X229759364Y-123226686D01*
X229759366Y-123226697D01*
X229818258Y-123446488D01*
X229818261Y-123446497D01*
X229914431Y-123652732D01*
X229914432Y-123652734D01*
X230044954Y-123839141D01*
X230205858Y-124000045D01*
X230205861Y-124000047D01*
X230392266Y-124130568D01*
X230598504Y-124226739D01*
X230818308Y-124285635D01*
X230980230Y-124299801D01*
X231044998Y-124305468D01*
X231045000Y-124305468D01*
X231045002Y-124305468D01*
X231101673Y-124300509D01*
X231271692Y-124285635D01*
X231491496Y-124226739D01*
X231697734Y-124130568D01*
X231884139Y-124000047D01*
X232045047Y-123839139D01*
X232175568Y-123652734D01*
X232271739Y-123446496D01*
X232305925Y-123318909D01*
X232338016Y-123263324D01*
X247649414Y-107951928D01*
X247751232Y-107811788D01*
X247829873Y-107657445D01*
X247883402Y-107492701D01*
X247910500Y-107321611D01*
X247910500Y-107148389D01*
X247910500Y-88663389D01*
X247910500Y-76413389D01*
X247883402Y-76242299D01*
X247829873Y-76077555D01*
X247751232Y-75923212D01*
X247649414Y-75783072D01*
X247526928Y-75660586D01*
X239716928Y-67850586D01*
X239576788Y-67748768D01*
X239422445Y-67670127D01*
X239257701Y-67616598D01*
X239257699Y-67616597D01*
X239257698Y-67616597D01*
X239126271Y-67595781D01*
X239086611Y-67589500D01*
X231836611Y-67589500D01*
X219336611Y-67589500D01*
X193896611Y-67589500D01*
X193723389Y-67589500D01*
X193683728Y-67595781D01*
X193552302Y-67616597D01*
X193387552Y-67670128D01*
X193233211Y-67748768D01*
X193153256Y-67806859D01*
X193093072Y-67850586D01*
X193093070Y-67850588D01*
X193093069Y-67850588D01*
X186862180Y-74081477D01*
X186800857Y-74114962D01*
X186731165Y-74109978D01*
X186675232Y-74068106D01*
X186650815Y-74002642D01*
X186650499Y-73993796D01*
X186650499Y-72842129D01*
X186650498Y-72842123D01*
X186650497Y-72842116D01*
X186644091Y-72782517D01*
X186610901Y-72693531D01*
X186593797Y-72647671D01*
X186593793Y-72647664D01*
X186507547Y-72532455D01*
X186507544Y-72532452D01*
X186392335Y-72446206D01*
X186392328Y-72446202D01*
X186257482Y-72395908D01*
X186257483Y-72395908D01*
X186197883Y-72389501D01*
X186197881Y-72389500D01*
X186197873Y-72389500D01*
X186197865Y-72389500D01*
X183564385Y-72389500D01*
X183553578Y-72389028D01*
X183500001Y-72384341D01*
X183499997Y-72384341D01*
X183446419Y-72389028D01*
X183435613Y-72389500D01*
X182602129Y-72389500D01*
X182602123Y-72389501D01*
X182542516Y-72395908D01*
X182407671Y-72446202D01*
X182407664Y-72446206D01*
X182292455Y-72532452D01*
X182292452Y-72532455D01*
X182206206Y-72647664D01*
X182206202Y-72647671D01*
X182155908Y-72782517D01*
X182150149Y-72836087D01*
X182149501Y-72842123D01*
X182149500Y-72842135D01*
X182149500Y-73675616D01*
X182149028Y-73686423D01*
X182144341Y-73739997D01*
X182144341Y-73740002D01*
X182149028Y-73793576D01*
X182149500Y-73804383D01*
X182149500Y-74637870D01*
X182149501Y-74637876D01*
X182155908Y-74697483D01*
X182206202Y-74832328D01*
X182206203Y-74832330D01*
X182283578Y-74935689D01*
X182307995Y-75001153D01*
X182293144Y-75069426D01*
X182283578Y-75084311D01*
X182206203Y-75187669D01*
X182206202Y-75187671D01*
X182155908Y-75322517D01*
X182152690Y-75352454D01*
X182149501Y-75382123D01*
X182149500Y-75382135D01*
X182149500Y-76215616D01*
X182149028Y-76226423D01*
X182144341Y-76279997D01*
X182144341Y-76280002D01*
X182149028Y-76333576D01*
X182149500Y-76344383D01*
X182149500Y-77177870D01*
X182149501Y-77177876D01*
X182155908Y-77237483D01*
X182206202Y-77372328D01*
X182206206Y-77372335D01*
X182283889Y-77476105D01*
X182308307Y-77541569D01*
X182293456Y-77609842D01*
X182283890Y-77624727D01*
X182206647Y-77727910D01*
X182206645Y-77727913D01*
X182156403Y-77862620D01*
X182156401Y-77862627D01*
X182150000Y-77922155D01*
X182150000Y-78570000D01*
X183055440Y-78570000D01*
X183024755Y-78623147D01*
X182990000Y-78752857D01*
X182990000Y-78887143D01*
X183024755Y-79016853D01*
X183055440Y-79070000D01*
X182150000Y-79070000D01*
X182150000Y-79717844D01*
X182156401Y-79777372D01*
X182156403Y-79777379D01*
X182206645Y-79912086D01*
X182206646Y-79912088D01*
X182283890Y-80015272D01*
X182308307Y-80080736D01*
X182293456Y-80149009D01*
X182283890Y-80163894D01*
X182206204Y-80267669D01*
X182206202Y-80267671D01*
X182155908Y-80402517D01*
X182149501Y-80462116D01*
X182149501Y-80462123D01*
X182149500Y-80462135D01*
X182149500Y-81295616D01*
X182149028Y-81306423D01*
X182144341Y-81359997D01*
X182144341Y-81360002D01*
X182149028Y-81413576D01*
X182149500Y-81424383D01*
X182149500Y-82257870D01*
X182149501Y-82257876D01*
X182155908Y-82317483D01*
X182206202Y-82452328D01*
X182206203Y-82452330D01*
X182283578Y-82555689D01*
X182307995Y-82621153D01*
X182293144Y-82689426D01*
X182283578Y-82704311D01*
X182206203Y-82807669D01*
X182206202Y-82807671D01*
X182155908Y-82942517D01*
X182149501Y-83002116D01*
X182149501Y-83002123D01*
X182149500Y-83002135D01*
X182149500Y-83835616D01*
X182149028Y-83846423D01*
X182144341Y-83899997D01*
X182144341Y-83900002D01*
X182149028Y-83953576D01*
X182149500Y-83964383D01*
X182149500Y-84797870D01*
X182149501Y-84797876D01*
X182155908Y-84857483D01*
X182206202Y-84992328D01*
X182206203Y-84992330D01*
X182283578Y-85095689D01*
X182307995Y-85161153D01*
X182293144Y-85229426D01*
X182283578Y-85244311D01*
X182206203Y-85347669D01*
X182206202Y-85347671D01*
X182155908Y-85482517D01*
X182149501Y-85542116D01*
X182149501Y-85542123D01*
X182149500Y-85542135D01*
X182149500Y-86375616D01*
X182149028Y-86386423D01*
X182144341Y-86439997D01*
X182144341Y-86440002D01*
X182149028Y-86493576D01*
X182149500Y-86504383D01*
X182149500Y-87337870D01*
X182149501Y-87337876D01*
X182155908Y-87397483D01*
X182206202Y-87532328D01*
X182206203Y-87532330D01*
X182283578Y-87635689D01*
X182307995Y-87701153D01*
X182293144Y-87769426D01*
X182283578Y-87784311D01*
X182206203Y-87887669D01*
X182206202Y-87887671D01*
X182155908Y-88022517D01*
X182149501Y-88082116D01*
X182149501Y-88082123D01*
X182149500Y-88082135D01*
X182149500Y-88915616D01*
X182149028Y-88926423D01*
X182144341Y-88979997D01*
X182144341Y-88980002D01*
X182149028Y-89033576D01*
X182149500Y-89044383D01*
X182149500Y-89877870D01*
X182149501Y-89877876D01*
X182155908Y-89937483D01*
X182206202Y-90072328D01*
X182206203Y-90072330D01*
X182283578Y-90175689D01*
X182307995Y-90241153D01*
X182293144Y-90309426D01*
X182283578Y-90324311D01*
X182206203Y-90427669D01*
X182206202Y-90427671D01*
X182155908Y-90562517D01*
X182149501Y-90622116D01*
X182149501Y-90622123D01*
X182149500Y-90622135D01*
X182149500Y-92417870D01*
X182149501Y-92417876D01*
X182155908Y-92477483D01*
X182206202Y-92612328D01*
X182206203Y-92612330D01*
X182283578Y-92715689D01*
X182307995Y-92781153D01*
X182293144Y-92849426D01*
X182283578Y-92864311D01*
X182206203Y-92967669D01*
X182206202Y-92967671D01*
X182155908Y-93102517D01*
X182149501Y-93162116D01*
X182149501Y-93162123D01*
X182149500Y-93162135D01*
X182149500Y-93995616D01*
X182149028Y-94006423D01*
X182144341Y-94059997D01*
X182144341Y-94060002D01*
X182149028Y-94113576D01*
X182149500Y-94124383D01*
X182149500Y-94957870D01*
X182149501Y-94957876D01*
X182155908Y-95017483D01*
X182206202Y-95152328D01*
X182206203Y-95152330D01*
X182283578Y-95255689D01*
X182307995Y-95321153D01*
X182293144Y-95389426D01*
X182283578Y-95404311D01*
X182206203Y-95507669D01*
X182206202Y-95507671D01*
X182155908Y-95642517D01*
X182149501Y-95702116D01*
X182149501Y-95702123D01*
X182149500Y-95702135D01*
X182149500Y-96535616D01*
X182149028Y-96546423D01*
X182144341Y-96599997D01*
X182144341Y-96600002D01*
X182149028Y-96653576D01*
X182149500Y-96664383D01*
X182149500Y-97497870D01*
X182149501Y-97497876D01*
X182155908Y-97557483D01*
X182206202Y-97692328D01*
X182206203Y-97692330D01*
X182283578Y-97795689D01*
X182307995Y-97861153D01*
X182293144Y-97929426D01*
X182283578Y-97944311D01*
X182206203Y-98047669D01*
X182206202Y-98047671D01*
X182155908Y-98182517D01*
X182149501Y-98242116D01*
X182149501Y-98242123D01*
X182149500Y-98242135D01*
X182149500Y-99075616D01*
X182149028Y-99086423D01*
X182144341Y-99139997D01*
X182144341Y-99140002D01*
X182149028Y-99193576D01*
X182149500Y-99204383D01*
X182149500Y-100037870D01*
X182149501Y-100037876D01*
X182155908Y-100097483D01*
X182206202Y-100232328D01*
X182206203Y-100232330D01*
X182283578Y-100335689D01*
X182307995Y-100401153D01*
X182293144Y-100469426D01*
X182283578Y-100484311D01*
X182206203Y-100587669D01*
X182206202Y-100587671D01*
X182155908Y-100722517D01*
X182149501Y-100782116D01*
X182149501Y-100782123D01*
X182149500Y-100782135D01*
X182149500Y-101615616D01*
X182149028Y-101626423D01*
X182144341Y-101679997D01*
X182144341Y-101680002D01*
X182149028Y-101733576D01*
X182149500Y-101744383D01*
X182149500Y-102577870D01*
X182149501Y-102577876D01*
X182155908Y-102637483D01*
X182206202Y-102772328D01*
X182206203Y-102772330D01*
X182283578Y-102875689D01*
X182307995Y-102941153D01*
X182293144Y-103009426D01*
X182283578Y-103024311D01*
X182206203Y-103127669D01*
X182206202Y-103127671D01*
X182155908Y-103262517D01*
X182149501Y-103322116D01*
X182149501Y-103322123D01*
X182149500Y-103322135D01*
X182149500Y-105117870D01*
X182149501Y-105117876D01*
X182155908Y-105177483D01*
X182206202Y-105312328D01*
X182206203Y-105312330D01*
X182283578Y-105415689D01*
X182307995Y-105481153D01*
X182293144Y-105549426D01*
X182283578Y-105564311D01*
X182206203Y-105667669D01*
X182206202Y-105667671D01*
X182155908Y-105802517D01*
X182149501Y-105862116D01*
X182149501Y-105862123D01*
X182149500Y-105862135D01*
X182149500Y-106695616D01*
X182149028Y-106706423D01*
X182144341Y-106759997D01*
X182144341Y-106760002D01*
X182149028Y-106813576D01*
X182149500Y-106824383D01*
X182149500Y-107657870D01*
X182149501Y-107657876D01*
X182155908Y-107717483D01*
X182206202Y-107852328D01*
X182206203Y-107852330D01*
X182283578Y-107955689D01*
X182307995Y-108021153D01*
X182293144Y-108089426D01*
X182283578Y-108104311D01*
X182206203Y-108207669D01*
X182206202Y-108207671D01*
X182155908Y-108342517D01*
X182149501Y-108402116D01*
X182149501Y-108402123D01*
X182149500Y-108402135D01*
X182149500Y-109235616D01*
X182149028Y-109246423D01*
X182144341Y-109299997D01*
X182144341Y-109300002D01*
X182149028Y-109353576D01*
X182149500Y-109364383D01*
X182149500Y-110197870D01*
X182149501Y-110197876D01*
X182155908Y-110257483D01*
X182206202Y-110392328D01*
X182206203Y-110392330D01*
X182283578Y-110495689D01*
X182307995Y-110561153D01*
X182293144Y-110629426D01*
X182283578Y-110644311D01*
X182206203Y-110747669D01*
X182206202Y-110747671D01*
X182155908Y-110882517D01*
X182149501Y-110942116D01*
X182149501Y-110942123D01*
X182149500Y-110942135D01*
X182149500Y-111775616D01*
X182149028Y-111786423D01*
X182144341Y-111839997D01*
X182144341Y-111840002D01*
X182149028Y-111893576D01*
X182149500Y-111904383D01*
X182149500Y-112737870D01*
X182149501Y-112737876D01*
X182155908Y-112797483D01*
X182206202Y-112932328D01*
X182206203Y-112932330D01*
X182283578Y-113035689D01*
X182307995Y-113101153D01*
X182293144Y-113169426D01*
X182283578Y-113184311D01*
X182206203Y-113287669D01*
X182206202Y-113287671D01*
X182155908Y-113422517D01*
X182149501Y-113482116D01*
X182149501Y-113482123D01*
X182149500Y-113482135D01*
X182149500Y-114315616D01*
X182149028Y-114326423D01*
X182144341Y-114379997D01*
X182144341Y-114380002D01*
X182149028Y-114433576D01*
X182149500Y-114444383D01*
X182149500Y-115277870D01*
X182149501Y-115277876D01*
X182155908Y-115337483D01*
X182206202Y-115472328D01*
X182206203Y-115472330D01*
X182283578Y-115575689D01*
X182307995Y-115641153D01*
X182293144Y-115709426D01*
X182283578Y-115724311D01*
X182206203Y-115827669D01*
X182206202Y-115827671D01*
X182155908Y-115962517D01*
X182149501Y-116022116D01*
X182149501Y-116022123D01*
X182149500Y-116022135D01*
X182149500Y-117817870D01*
X182149501Y-117817876D01*
X182155908Y-117877483D01*
X182206202Y-118012328D01*
X182206203Y-118012330D01*
X182283578Y-118115689D01*
X182307995Y-118181153D01*
X182293144Y-118249426D01*
X182283578Y-118264311D01*
X182206203Y-118367669D01*
X182206202Y-118367671D01*
X182155908Y-118502517D01*
X182149501Y-118562116D01*
X182149501Y-118562123D01*
X182149500Y-118562135D01*
X182149500Y-119395616D01*
X182149028Y-119406423D01*
X182144341Y-119459997D01*
X182144341Y-119460002D01*
X182149028Y-119513576D01*
X182149500Y-119524383D01*
X182149500Y-120357870D01*
X182149501Y-120357876D01*
X182155908Y-120417483D01*
X182206202Y-120552328D01*
X182206203Y-120552330D01*
X182283578Y-120655689D01*
X182307995Y-120721153D01*
X182293144Y-120789426D01*
X182283578Y-120804311D01*
X182206203Y-120907669D01*
X182206202Y-120907671D01*
X182155908Y-121042517D01*
X182149501Y-121102116D01*
X182149501Y-121102123D01*
X182149500Y-121102135D01*
X182149500Y-121935616D01*
X182149028Y-121946423D01*
X182144341Y-121999997D01*
X182144341Y-122000002D01*
X178500499Y-122000002D01*
X178500499Y-121834381D01*
X178500971Y-121823578D01*
X178505659Y-121770000D01*
X178505659Y-121769999D01*
X178500971Y-121716418D01*
X178500499Y-121705610D01*
X178500499Y-120872129D01*
X178500498Y-120872123D01*
X178500497Y-120872116D01*
X178494091Y-120812517D01*
X178491030Y-120804311D01*
X178443797Y-120677671D01*
X178443793Y-120677664D01*
X178357547Y-120562455D01*
X178357544Y-120562452D01*
X178242335Y-120476206D01*
X178242328Y-120476202D01*
X178107482Y-120425908D01*
X178107483Y-120425908D01*
X178047883Y-120419501D01*
X178047881Y-120419500D01*
X178047873Y-120419500D01*
X178047865Y-120419500D01*
X177214383Y-120419500D01*
X177203576Y-120419028D01*
X177150002Y-120414341D01*
X177149999Y-120414341D01*
X177114865Y-120417414D01*
X177096421Y-120419028D01*
X177085616Y-120419500D01*
X176252129Y-120419500D01*
X176252123Y-120419501D01*
X176192516Y-120425908D01*
X176057671Y-120476202D01*
X176057669Y-120476203D01*
X175954311Y-120553578D01*
X175888847Y-120577995D01*
X175820574Y-120563144D01*
X175805689Y-120553578D01*
X175702330Y-120476203D01*
X175702328Y-120476202D01*
X175567482Y-120425908D01*
X175567483Y-120425908D01*
X175507883Y-120419501D01*
X175507881Y-120419500D01*
X175507873Y-120419500D01*
X175507864Y-120419500D01*
X173712129Y-120419500D01*
X173712123Y-120419501D01*
X173652516Y-120425908D01*
X173517671Y-120476202D01*
X173517669Y-120476203D01*
X173414311Y-120553578D01*
X173348847Y-120577995D01*
X173280574Y-120563144D01*
X173265689Y-120553578D01*
X173162330Y-120476203D01*
X173162328Y-120476202D01*
X173027482Y-120425908D01*
X173027483Y-120425908D01*
X172967883Y-120419501D01*
X172967881Y-120419500D01*
X172967873Y-120419500D01*
X172967865Y-120419500D01*
X172134383Y-120419500D01*
X172123576Y-120419028D01*
X172070002Y-120414341D01*
X172069999Y-120414341D01*
X172034865Y-120417414D01*
X172016421Y-120419028D01*
X172005616Y-120419500D01*
X171172129Y-120419500D01*
X171172123Y-120419501D01*
X171112516Y-120425908D01*
X170977671Y-120476202D01*
X170977664Y-120476206D01*
X170862455Y-120562452D01*
X170862452Y-120562455D01*
X170776206Y-120677664D01*
X170776202Y-120677671D01*
X170725908Y-120812517D01*
X170719501Y-120872116D01*
X170719501Y-120872123D01*
X170719500Y-120872135D01*
X170719500Y-121705618D01*
X170719028Y-121716425D01*
X170714341Y-121769997D01*
X170714341Y-121770001D01*
X167070499Y-121770001D01*
X167070499Y-121102129D01*
X167070498Y-121102123D01*
X167070497Y-121102116D01*
X167064091Y-121042517D01*
X167013796Y-120907669D01*
X166936421Y-120804309D01*
X166912004Y-120738848D01*
X166926855Y-120670575D01*
X166936416Y-120655696D01*
X167013796Y-120552331D01*
X167064091Y-120417483D01*
X167070500Y-120357873D01*
X167070499Y-119524383D01*
X167070971Y-119513576D01*
X167075659Y-119460000D01*
X167075659Y-119459999D01*
X167070971Y-119406421D01*
X167070499Y-119395613D01*
X167070499Y-118562129D01*
X167070498Y-118562123D01*
X167070497Y-118562116D01*
X167064091Y-118502517D01*
X167013796Y-118367669D01*
X166936421Y-118264309D01*
X166912004Y-118198848D01*
X166926855Y-118130575D01*
X166936416Y-118115696D01*
X167013796Y-118012331D01*
X167064091Y-117877483D01*
X167070500Y-117817873D01*
X167070499Y-116022128D01*
X167064091Y-115962517D01*
X167013796Y-115827669D01*
X166936421Y-115724309D01*
X166912004Y-115658848D01*
X166926855Y-115590575D01*
X166936416Y-115575696D01*
X167013796Y-115472331D01*
X167064091Y-115337483D01*
X167070500Y-115277873D01*
X167070499Y-114444383D01*
X167070971Y-114433576D01*
X167075659Y-114380000D01*
X167075659Y-114379999D01*
X167070971Y-114326421D01*
X167070499Y-114315613D01*
X167070499Y-113482129D01*
X167070498Y-113482123D01*
X167070497Y-113482116D01*
X167064091Y-113422517D01*
X167013796Y-113287669D01*
X166936421Y-113184309D01*
X166912004Y-113118848D01*
X166926855Y-113050575D01*
X166936416Y-113035696D01*
X167013796Y-112932331D01*
X167064091Y-112797483D01*
X167070500Y-112737873D01*
X167070499Y-111904383D01*
X167070971Y-111893576D01*
X167075659Y-111840000D01*
X167075659Y-111839999D01*
X167070971Y-111786421D01*
X167070499Y-111775613D01*
X167070499Y-110942129D01*
X167070498Y-110942123D01*
X167070497Y-110942116D01*
X167064091Y-110882517D01*
X167049304Y-110842872D01*
X167013797Y-110747671D01*
X167013795Y-110747668D01*
X166936421Y-110644309D01*
X166912004Y-110578848D01*
X166926855Y-110510575D01*
X166936416Y-110495696D01*
X167013796Y-110392331D01*
X167064091Y-110257483D01*
X167070500Y-110197873D01*
X167070499Y-109364383D01*
X167070971Y-109353576D01*
X167075659Y-109300000D01*
X167075659Y-109299999D01*
X167070971Y-109246421D01*
X167070499Y-109235613D01*
X167070499Y-108402129D01*
X167070498Y-108402123D01*
X167070497Y-108402116D01*
X167064091Y-108342517D01*
X167016726Y-108215526D01*
X167013797Y-108207671D01*
X167013795Y-108207668D01*
X166936421Y-108104309D01*
X166912004Y-108038848D01*
X166926855Y-107970575D01*
X166936416Y-107955696D01*
X167013796Y-107852331D01*
X167064091Y-107717483D01*
X167070500Y-107657873D01*
X167070499Y-106824383D01*
X167070971Y-106813576D01*
X167075659Y-106760000D01*
X167075659Y-106759999D01*
X167070971Y-106706421D01*
X167070499Y-106695613D01*
X167070499Y-105862129D01*
X167070498Y-105862123D01*
X167070497Y-105862116D01*
X167064091Y-105802517D01*
X167013796Y-105667669D01*
X166936421Y-105564309D01*
X166912004Y-105498848D01*
X166926855Y-105430575D01*
X166936416Y-105415696D01*
X167013796Y-105312331D01*
X167064091Y-105177483D01*
X167070500Y-105117873D01*
X167070499Y-103322128D01*
X167064091Y-103262517D01*
X167013796Y-103127669D01*
X166936421Y-103024309D01*
X166912004Y-102958848D01*
X166926855Y-102890575D01*
X166936416Y-102875696D01*
X167013796Y-102772331D01*
X167064091Y-102637483D01*
X167070500Y-102577873D01*
X167070499Y-101744383D01*
X167070971Y-101733576D01*
X167075659Y-101680000D01*
X167075659Y-101679999D01*
X167070971Y-101626421D01*
X167070499Y-101615613D01*
X167070499Y-100782129D01*
X167070498Y-100782123D01*
X167070497Y-100782116D01*
X167064091Y-100722517D01*
X167013796Y-100587669D01*
X166936421Y-100484309D01*
X166912004Y-100418848D01*
X166926855Y-100350575D01*
X166936416Y-100335696D01*
X167013796Y-100232331D01*
X167064091Y-100097483D01*
X167070500Y-100037873D01*
X167070499Y-99204383D01*
X167070971Y-99193576D01*
X167075659Y-99140000D01*
X167075659Y-99139999D01*
X167070971Y-99086421D01*
X167070499Y-99075613D01*
X167070499Y-98242129D01*
X167070498Y-98242123D01*
X167070497Y-98242116D01*
X167064091Y-98182517D01*
X167013796Y-98047669D01*
X166936421Y-97944309D01*
X166912004Y-97878848D01*
X166926855Y-97810575D01*
X166936416Y-97795696D01*
X167013796Y-97692331D01*
X167064091Y-97557483D01*
X167070500Y-97497873D01*
X167070499Y-96664383D01*
X167070971Y-96653576D01*
X167075659Y-96600000D01*
X167075659Y-96599999D01*
X167070971Y-96546421D01*
X167070499Y-96535613D01*
X167070499Y-95702129D01*
X167070498Y-95702123D01*
X167070497Y-95702116D01*
X167064091Y-95642517D01*
X167013796Y-95507669D01*
X166936421Y-95404309D01*
X166912004Y-95338848D01*
X166926855Y-95270575D01*
X166936416Y-95255696D01*
X167013796Y-95152331D01*
X167064091Y-95017483D01*
X167070500Y-94957873D01*
X167070499Y-94124383D01*
X167070971Y-94113576D01*
X167075659Y-94060000D01*
X167075659Y-94059999D01*
X167070971Y-94006421D01*
X167070499Y-93995613D01*
X167070499Y-93162129D01*
X167070498Y-93162123D01*
X167070497Y-93162116D01*
X167064091Y-93102517D01*
X167013796Y-92967669D01*
X166936421Y-92864309D01*
X166912004Y-92798848D01*
X166926855Y-92730575D01*
X166936416Y-92715696D01*
X167013796Y-92612331D01*
X167064091Y-92477483D01*
X167070500Y-92417873D01*
X167070499Y-90622128D01*
X167064091Y-90562517D01*
X167013796Y-90427669D01*
X166936421Y-90324309D01*
X166912004Y-90258848D01*
X166926855Y-90190575D01*
X166936416Y-90175696D01*
X167013796Y-90072331D01*
X167064091Y-89937483D01*
X167070500Y-89877873D01*
X167070499Y-89044383D01*
X167070971Y-89033576D01*
X167075659Y-88980000D01*
X167075659Y-88979999D01*
X167070971Y-88926421D01*
X167070499Y-88915613D01*
X167070499Y-88082129D01*
X167070498Y-88082123D01*
X167070497Y-88082116D01*
X167064091Y-88022517D01*
X167013796Y-87887669D01*
X166936421Y-87784309D01*
X166912004Y-87718848D01*
X166926855Y-87650575D01*
X166936416Y-87635696D01*
X167013796Y-87532331D01*
X167064091Y-87397483D01*
X167070500Y-87337873D01*
X167070499Y-86504383D01*
X167070971Y-86493576D01*
X167075659Y-86440000D01*
X167075659Y-86439999D01*
X167070971Y-86386421D01*
X167070499Y-86375613D01*
X167070499Y-85542129D01*
X167070498Y-85542123D01*
X167070497Y-85542116D01*
X167064091Y-85482517D01*
X167013796Y-85347669D01*
X166936421Y-85244309D01*
X166912004Y-85178848D01*
X166926855Y-85110575D01*
X166936416Y-85095696D01*
X167013796Y-84992331D01*
X167064091Y-84857483D01*
X167070500Y-84797873D01*
X167070499Y-83964383D01*
X167070971Y-83953576D01*
X167075659Y-83900000D01*
X167075659Y-83899999D01*
X167070971Y-83846421D01*
X167070499Y-83835613D01*
X167070499Y-83002129D01*
X167070498Y-83002123D01*
X167070497Y-83002116D01*
X167064091Y-82942517D01*
X167013796Y-82807669D01*
X166936421Y-82704309D01*
X166912004Y-82638848D01*
X166926855Y-82570575D01*
X166936416Y-82555696D01*
X167013796Y-82452331D01*
X167064091Y-82317483D01*
X167070500Y-82257873D01*
X167070499Y-81424383D01*
X167070971Y-81413576D01*
X167075659Y-81360000D01*
X167075659Y-81359999D01*
X167070971Y-81306421D01*
X167070499Y-81295613D01*
X167070499Y-80462129D01*
X167070498Y-80462123D01*
X167070497Y-80462116D01*
X167064091Y-80402517D01*
X167013796Y-80267669D01*
X166936421Y-80164309D01*
X166912004Y-80098848D01*
X166926855Y-80030575D01*
X166936416Y-80015696D01*
X167013796Y-79912331D01*
X167064091Y-79777483D01*
X167070500Y-79717873D01*
X167070499Y-77922128D01*
X167064091Y-77862517D01*
X167063748Y-77861598D01*
X167013797Y-77727671D01*
X167013795Y-77727668D01*
X166998231Y-77706877D01*
X166936421Y-77624309D01*
X166912004Y-77558848D01*
X166926855Y-77490575D01*
X166936416Y-77475696D01*
X167013796Y-77372331D01*
X167064091Y-77237483D01*
X167070500Y-77177873D01*
X167070500Y-76900002D01*
X170929723Y-76900002D01*
X170948793Y-77117975D01*
X170948793Y-77117979D01*
X171005422Y-77329322D01*
X171005424Y-77329326D01*
X171005425Y-77329330D01*
X171025477Y-77372331D01*
X171097897Y-77527638D01*
X171107652Y-77541569D01*
X171223402Y-77706877D01*
X171378123Y-77861598D01*
X171557361Y-77987102D01*
X171755670Y-78079575D01*
X171967023Y-78136207D01*
X172149926Y-78152208D01*
X172184998Y-78155277D01*
X172185000Y-78155277D01*
X172185002Y-78155277D01*
X172213254Y-78152805D01*
X172402977Y-78136207D01*
X172614330Y-78079575D01*
X172812639Y-77987102D01*
X172991877Y-77861598D01*
X173146598Y-77706877D01*
X173272102Y-77527639D01*
X173364575Y-77329330D01*
X173421207Y-77117977D01*
X173440277Y-76900002D01*
X175779723Y-76900002D01*
X175798793Y-77117975D01*
X175798793Y-77117979D01*
X175855422Y-77329322D01*
X175855424Y-77329326D01*
X175855425Y-77329330D01*
X175875477Y-77372331D01*
X175947897Y-77527638D01*
X175957652Y-77541569D01*
X176073402Y-77706877D01*
X176228123Y-77861598D01*
X176407361Y-77987102D01*
X176605670Y-78079575D01*
X176817023Y-78136207D01*
X176999926Y-78152208D01*
X177034998Y-78155277D01*
X177035000Y-78155277D01*
X177035002Y-78155277D01*
X177063254Y-78152805D01*
X177252977Y-78136207D01*
X177464330Y-78079575D01*
X177662639Y-77987102D01*
X177841877Y-77861598D01*
X177996598Y-77706877D01*
X178122102Y-77527639D01*
X178214575Y-77329330D01*
X178271207Y-77117977D01*
X178290277Y-76900000D01*
X178271207Y-76682023D01*
X178214575Y-76470670D01*
X178122102Y-76272362D01*
X178122100Y-76272359D01*
X178122099Y-76272357D01*
X177996599Y-76093124D01*
X177981027Y-76077552D01*
X177841877Y-75938402D01*
X177703978Y-75841844D01*
X177662638Y-75812897D01*
X177563484Y-75766661D01*
X177464330Y-75720425D01*
X177464326Y-75720424D01*
X177464322Y-75720422D01*
X177252977Y-75663793D01*
X177035002Y-75644723D01*
X177034998Y-75644723D01*
X176889682Y-75657436D01*
X176817023Y-75663793D01*
X176817020Y-75663793D01*
X176605677Y-75720422D01*
X176605668Y-75720426D01*
X176407361Y-75812898D01*
X176407357Y-75812900D01*
X176228121Y-75938402D01*
X176073402Y-76093121D01*
X175947900Y-76272357D01*
X175947898Y-76272361D01*
X175855426Y-76470668D01*
X175855422Y-76470677D01*
X175798793Y-76682020D01*
X175798793Y-76682024D01*
X175779723Y-76899997D01*
X175779723Y-76900002D01*
X173440277Y-76900002D01*
X173440277Y-76900000D01*
X173421207Y-76682023D01*
X173364575Y-76470670D01*
X173272102Y-76272362D01*
X173272100Y-76272359D01*
X173272099Y-76272357D01*
X173146599Y-76093124D01*
X173131027Y-76077552D01*
X172991877Y-75938402D01*
X172853978Y-75841844D01*
X172812638Y-75812897D01*
X172713484Y-75766661D01*
X172614330Y-75720425D01*
X172614326Y-75720424D01*
X172614322Y-75720422D01*
X172402977Y-75663793D01*
X172185002Y-75644723D01*
X172184998Y-75644723D01*
X172039682Y-75657436D01*
X171967023Y-75663793D01*
X171967020Y-75663793D01*
X171755677Y-75720422D01*
X171755668Y-75720426D01*
X171557361Y-75812898D01*
X171557357Y-75812900D01*
X171378121Y-75938402D01*
X171223402Y-76093121D01*
X171097900Y-76272357D01*
X171097898Y-76272361D01*
X171005426Y-76470668D01*
X171005422Y-76470677D01*
X170948793Y-76682020D01*
X170948793Y-76682024D01*
X170929723Y-76899997D01*
X170929723Y-76900002D01*
X167070500Y-76900002D01*
X167070499Y-76344383D01*
X167070971Y-76333576D01*
X167075659Y-76280000D01*
X167075659Y-76279999D01*
X167070971Y-76226421D01*
X167070499Y-76215613D01*
X167070499Y-75382129D01*
X167070498Y-75382123D01*
X167070497Y-75382116D01*
X167064091Y-75322517D01*
X167043088Y-75266206D01*
X167013797Y-75187671D01*
X167013795Y-75187668D01*
X167005507Y-75176597D01*
X166936421Y-75084309D01*
X166912004Y-75018848D01*
X166926855Y-74950575D01*
X166936416Y-74935696D01*
X167013796Y-74832331D01*
X167064091Y-74697483D01*
X167070500Y-74637873D01*
X167070499Y-73870006D01*
X170479700Y-73870006D01*
X170498864Y-74101297D01*
X170498866Y-74101308D01*
X170555842Y-74326300D01*
X170649075Y-74538848D01*
X170776016Y-74733147D01*
X170776019Y-74733151D01*
X170776021Y-74733153D01*
X170933216Y-74903913D01*
X170933219Y-74903915D01*
X170933222Y-74903918D01*
X171116365Y-75046464D01*
X171116371Y-75046468D01*
X171116374Y-75046470D01*
X171320497Y-75156936D01*
X171410019Y-75187669D01*
X171540015Y-75232297D01*
X171540017Y-75232297D01*
X171540019Y-75232298D01*
X171768951Y-75270500D01*
X171768952Y-75270500D01*
X172001048Y-75270500D01*
X172001049Y-75270500D01*
X172229981Y-75232298D01*
X172449503Y-75156936D01*
X172653626Y-75046470D01*
X172836784Y-74903913D01*
X172993979Y-74733153D01*
X173120924Y-74538849D01*
X173214157Y-74326300D01*
X173271134Y-74101305D01*
X173273885Y-74068106D01*
X173290300Y-73870006D01*
X175929700Y-73870006D01*
X175948864Y-74101297D01*
X175948866Y-74101308D01*
X176005842Y-74326300D01*
X176099075Y-74538848D01*
X176226016Y-74733147D01*
X176226019Y-74733151D01*
X176226021Y-74733153D01*
X176383216Y-74903913D01*
X176383219Y-74903915D01*
X176383222Y-74903918D01*
X176566365Y-75046464D01*
X176566371Y-75046468D01*
X176566374Y-75046470D01*
X176770497Y-75156936D01*
X176860019Y-75187669D01*
X176990015Y-75232297D01*
X176990017Y-75232297D01*
X176990019Y-75232298D01*
X177218951Y-75270500D01*
X177218952Y-75270500D01*
X177451048Y-75270500D01*
X177451049Y-75270500D01*
X177679981Y-75232298D01*
X177899503Y-75156936D01*
X178103626Y-75046470D01*
X178286784Y-74903913D01*
X178443979Y-74733153D01*
X178570924Y-74538849D01*
X178664157Y-74326300D01*
X178721134Y-74101305D01*
X178723885Y-74068106D01*
X178740300Y-73870006D01*
X178740300Y-73869993D01*
X178721135Y-73638702D01*
X178721133Y-73638691D01*
X178664157Y-73413699D01*
X178570924Y-73201151D01*
X178443983Y-73006852D01*
X178443980Y-73006849D01*
X178443979Y-73006847D01*
X178286784Y-72836087D01*
X178286779Y-72836083D01*
X178286777Y-72836081D01*
X178103634Y-72693535D01*
X178103628Y-72693531D01*
X177899504Y-72583064D01*
X177899495Y-72583061D01*
X177679984Y-72507702D01*
X177508282Y-72479050D01*
X177451049Y-72469500D01*
X177218951Y-72469500D01*
X177173164Y-72477140D01*
X176990015Y-72507702D01*
X176770504Y-72583061D01*
X176770495Y-72583064D01*
X176566371Y-72693531D01*
X176566365Y-72693535D01*
X176383222Y-72836081D01*
X176383219Y-72836084D01*
X176383216Y-72836086D01*
X176383216Y-72836087D01*
X176324267Y-72900122D01*
X176226016Y-73006852D01*
X176099075Y-73201151D01*
X176005842Y-73413699D01*
X175948866Y-73638691D01*
X175948864Y-73638702D01*
X175929700Y-73869993D01*
X175929700Y-73870006D01*
X173290300Y-73870006D01*
X173290300Y-73869993D01*
X173271135Y-73638702D01*
X173271133Y-73638691D01*
X173214157Y-73413699D01*
X173120924Y-73201151D01*
X172993983Y-73006852D01*
X172993980Y-73006849D01*
X172993979Y-73006847D01*
X172836784Y-72836087D01*
X172836779Y-72836083D01*
X172836777Y-72836081D01*
X172653634Y-72693535D01*
X172653628Y-72693531D01*
X172449504Y-72583064D01*
X172449495Y-72583061D01*
X172229984Y-72507702D01*
X172058282Y-72479050D01*
X172001049Y-72469500D01*
X171768951Y-72469500D01*
X171723164Y-72477140D01*
X171540015Y-72507702D01*
X171320504Y-72583061D01*
X171320495Y-72583064D01*
X171116371Y-72693531D01*
X171116365Y-72693535D01*
X170933222Y-72836081D01*
X170933219Y-72836084D01*
X170933216Y-72836086D01*
X170933216Y-72836087D01*
X170874267Y-72900122D01*
X170776016Y-73006852D01*
X170649075Y-73201151D01*
X170555842Y-73413699D01*
X170498866Y-73638691D01*
X170498864Y-73638702D01*
X170479700Y-73869993D01*
X170479700Y-73870006D01*
X167070499Y-73870006D01*
X167070499Y-73804383D01*
X167070971Y-73793576D01*
X167075659Y-73740000D01*
X167075659Y-73739999D01*
X167070971Y-73686421D01*
X167070499Y-73675613D01*
X167070499Y-72842129D01*
X167070498Y-72842123D01*
X167070497Y-72842116D01*
X167064091Y-72782517D01*
X167030901Y-72693531D01*
X167013797Y-72647671D01*
X167013793Y-72647664D01*
X166927547Y-72532455D01*
X166927544Y-72532452D01*
X166812335Y-72446206D01*
X166812328Y-72446202D01*
X166677482Y-72395908D01*
X166677483Y-72395908D01*
X166617883Y-72389501D01*
X166617881Y-72389500D01*
X166617873Y-72389500D01*
X166617865Y-72389500D01*
X165784380Y-72389500D01*
X165773573Y-72389028D01*
X165747024Y-72386705D01*
X165720001Y-72384341D01*
X165719998Y-72384341D01*
X165666424Y-72389028D01*
X165655617Y-72389500D01*
X163022129Y-72389500D01*
X163022123Y-72389501D01*
X162962516Y-72395908D01*
X162827671Y-72446202D01*
X162827664Y-72446206D01*
X162712455Y-72532452D01*
X162712452Y-72532455D01*
X162626206Y-72647664D01*
X162626202Y-72647671D01*
X162575908Y-72782517D01*
X162570149Y-72836087D01*
X162569501Y-72842123D01*
X162569500Y-72842135D01*
X162569500Y-74637870D01*
X162569501Y-74637876D01*
X162575908Y-74697483D01*
X162626202Y-74832328D01*
X162626203Y-74832330D01*
X162703578Y-74935689D01*
X162727995Y-75001153D01*
X162713144Y-75069426D01*
X162703578Y-75084311D01*
X162626203Y-75187669D01*
X162626202Y-75187671D01*
X162575908Y-75322517D01*
X162572690Y-75352454D01*
X162569501Y-75382123D01*
X162569500Y-75382135D01*
X162569500Y-77177870D01*
X162569501Y-77177876D01*
X162575908Y-77237483D01*
X162626202Y-77372328D01*
X162626203Y-77372330D01*
X162703578Y-77475689D01*
X162727995Y-77541153D01*
X162713144Y-77609426D01*
X162703578Y-77624309D01*
X162703265Y-77624729D01*
X162626203Y-77727669D01*
X162626202Y-77727671D01*
X162575908Y-77862517D01*
X162569501Y-77922116D01*
X162569501Y-77922123D01*
X162569500Y-77922135D01*
X162569500Y-79717870D01*
X162569501Y-79717876D01*
X162575908Y-79777483D01*
X162626202Y-79912328D01*
X162626203Y-79912330D01*
X162703578Y-80015689D01*
X162727995Y-80081153D01*
X162713144Y-80149426D01*
X162703578Y-80164311D01*
X162626203Y-80267669D01*
X162626202Y-80267671D01*
X162575908Y-80402517D01*
X162569501Y-80462116D01*
X162569501Y-80462123D01*
X162569500Y-80462135D01*
X162569500Y-82257870D01*
X162569501Y-82257876D01*
X162575908Y-82317483D01*
X162626202Y-82452328D01*
X162626203Y-82452330D01*
X162703578Y-82555689D01*
X162727995Y-82621153D01*
X162713144Y-82689426D01*
X162703578Y-82704311D01*
X162626203Y-82807669D01*
X162626202Y-82807671D01*
X162575908Y-82942517D01*
X162569501Y-83002116D01*
X162569501Y-83002123D01*
X162569500Y-83002135D01*
X162569500Y-84797870D01*
X162569501Y-84797876D01*
X162575908Y-84857483D01*
X162626202Y-84992328D01*
X162626203Y-84992330D01*
X162703578Y-85095689D01*
X162727995Y-85161153D01*
X162713144Y-85229426D01*
X162703578Y-85244311D01*
X162626203Y-85347669D01*
X162626202Y-85347671D01*
X162575908Y-85482517D01*
X162569501Y-85542116D01*
X162569501Y-85542123D01*
X162569500Y-85542135D01*
X162569500Y-87337870D01*
X162569501Y-87337876D01*
X162575908Y-87397483D01*
X162626202Y-87532328D01*
X162626203Y-87532330D01*
X162703578Y-87635689D01*
X162727995Y-87701153D01*
X162713144Y-87769426D01*
X162703578Y-87784311D01*
X162626203Y-87887669D01*
X162626202Y-87887671D01*
X162575908Y-88022517D01*
X162569501Y-88082116D01*
X162569501Y-88082123D01*
X162569500Y-88082135D01*
X162569500Y-89877870D01*
X162569501Y-89877876D01*
X162575908Y-89937483D01*
X162626202Y-90072328D01*
X162626203Y-90072330D01*
X162703578Y-90175689D01*
X162727995Y-90241153D01*
X162713144Y-90309426D01*
X162703578Y-90324311D01*
X162626203Y-90427669D01*
X162626202Y-90427671D01*
X162575908Y-90562517D01*
X162569501Y-90622116D01*
X162569501Y-90622123D01*
X162569500Y-90622135D01*
X162569500Y-92417870D01*
X162569501Y-92417876D01*
X162575908Y-92477483D01*
X162626202Y-92612328D01*
X162626203Y-92612330D01*
X162703578Y-92715689D01*
X162727995Y-92781153D01*
X162713144Y-92849426D01*
X162703578Y-92864311D01*
X162626203Y-92967669D01*
X162626202Y-92967671D01*
X162575908Y-93102517D01*
X162569501Y-93162116D01*
X162569501Y-93162123D01*
X162569500Y-93162135D01*
X162569500Y-94957870D01*
X162569501Y-94957876D01*
X162575908Y-95017483D01*
X162626202Y-95152328D01*
X162626203Y-95152330D01*
X162703578Y-95255689D01*
X162727995Y-95321153D01*
X162713144Y-95389426D01*
X162703578Y-95404311D01*
X162626203Y-95507669D01*
X162626202Y-95507671D01*
X162575908Y-95642517D01*
X162569501Y-95702116D01*
X162569501Y-95702123D01*
X162569500Y-95702135D01*
X162569500Y-97497870D01*
X162569501Y-97497876D01*
X162575908Y-97557483D01*
X162626202Y-97692328D01*
X162626203Y-97692330D01*
X162703578Y-97795689D01*
X162727995Y-97861153D01*
X162713144Y-97929426D01*
X162703578Y-97944311D01*
X162626203Y-98047669D01*
X162626202Y-98047671D01*
X162575908Y-98182517D01*
X162569501Y-98242116D01*
X162569501Y-98242123D01*
X162569500Y-98242135D01*
X162569500Y-100037870D01*
X162569501Y-100037876D01*
X162575908Y-100097483D01*
X162626202Y-100232328D01*
X162626203Y-100232330D01*
X162703578Y-100335689D01*
X162727995Y-100401153D01*
X162713144Y-100469426D01*
X162703578Y-100484311D01*
X162626203Y-100587669D01*
X162626202Y-100587671D01*
X162575908Y-100722517D01*
X162569501Y-100782116D01*
X162569501Y-100782123D01*
X162569500Y-100782135D01*
X162569500Y-102577870D01*
X162569501Y-102577876D01*
X162575908Y-102637483D01*
X162626202Y-102772328D01*
X162626203Y-102772330D01*
X162703578Y-102875689D01*
X162727995Y-102941153D01*
X162713144Y-103009426D01*
X162703578Y-103024311D01*
X162626203Y-103127669D01*
X162626202Y-103127671D01*
X162575908Y-103262517D01*
X162569501Y-103322116D01*
X162569501Y-103322123D01*
X162569500Y-103322135D01*
X162569500Y-105117870D01*
X162569501Y-105117876D01*
X162575908Y-105177483D01*
X162626202Y-105312328D01*
X162626203Y-105312330D01*
X162703578Y-105415689D01*
X162727995Y-105481153D01*
X162713144Y-105549426D01*
X162703578Y-105564311D01*
X162626203Y-105667669D01*
X162626202Y-105667671D01*
X162575908Y-105802517D01*
X162569501Y-105862116D01*
X162569501Y-105862123D01*
X162569500Y-105862135D01*
X162569500Y-107657870D01*
X162569501Y-107657876D01*
X162575908Y-107717483D01*
X162626202Y-107852328D01*
X162626203Y-107852330D01*
X162703578Y-107955689D01*
X162727995Y-108021153D01*
X162713144Y-108089426D01*
X162703578Y-108104311D01*
X162626203Y-108207669D01*
X162626202Y-108207671D01*
X162575908Y-108342517D01*
X162569501Y-108402116D01*
X162569501Y-108402123D01*
X162569500Y-108402135D01*
X162569500Y-110197870D01*
X162569501Y-110197876D01*
X162575908Y-110257483D01*
X162626202Y-110392328D01*
X162626203Y-110392330D01*
X162703578Y-110495689D01*
X162727995Y-110561153D01*
X162713144Y-110629426D01*
X162703578Y-110644311D01*
X162626203Y-110747669D01*
X162626202Y-110747671D01*
X162575908Y-110882517D01*
X162569501Y-110942116D01*
X162569501Y-110942123D01*
X162569500Y-110942135D01*
X162569500Y-112737870D01*
X162569501Y-112737876D01*
X162575908Y-112797483D01*
X162626202Y-112932328D01*
X162626203Y-112932330D01*
X162703578Y-113035689D01*
X162727995Y-113101153D01*
X162713144Y-113169426D01*
X162703578Y-113184311D01*
X162626203Y-113287669D01*
X162626202Y-113287671D01*
X162575908Y-113422517D01*
X162569501Y-113482116D01*
X162569501Y-113482123D01*
X162569500Y-113482135D01*
X162569500Y-115277870D01*
X162569501Y-115277876D01*
X162575908Y-115337483D01*
X162626202Y-115472328D01*
X162626203Y-115472330D01*
X162703578Y-115575689D01*
X162727995Y-115641153D01*
X162713144Y-115709426D01*
X162703578Y-115724311D01*
X162626203Y-115827669D01*
X162626202Y-115827671D01*
X162575908Y-115962517D01*
X162569501Y-116022116D01*
X162569501Y-116022123D01*
X162569500Y-116022135D01*
X162569500Y-117817870D01*
X162569501Y-117817876D01*
X162575908Y-117877483D01*
X162626202Y-118012328D01*
X162626203Y-118012330D01*
X162703578Y-118115689D01*
X162727995Y-118181153D01*
X162713144Y-118249426D01*
X162703578Y-118264311D01*
X162626203Y-118367669D01*
X162626202Y-118367671D01*
X162575908Y-118502517D01*
X162569501Y-118562116D01*
X162569501Y-118562123D01*
X162569500Y-118562135D01*
X162569500Y-120357870D01*
X162569501Y-120357876D01*
X162575908Y-120417483D01*
X162626202Y-120552328D01*
X162626203Y-120552330D01*
X162703578Y-120655689D01*
X162727995Y-120721153D01*
X162713144Y-120789426D01*
X162703578Y-120804311D01*
X162626203Y-120907669D01*
X162626202Y-120907671D01*
X162575908Y-121042517D01*
X162569501Y-121102116D01*
X162569501Y-121102123D01*
X162569500Y-121102135D01*
X162569500Y-122897870D01*
X126000500Y-122897870D01*
X126000500Y-44124500D01*
X126020185Y-44057461D01*
X126072989Y-44011706D01*
X126124500Y-44000500D01*
X264375500Y-44000500D01*
X264442539Y-44020185D01*
G37*
%TD.AperFunction*%
%TD*%
M02*
